<?xml version="1.0" standalone="no"?>
<!DOCTYPE svg PUBLIC "-//W3C//DTD SVG 20010904//EN"
 "http://www.w3.org/TR/2001/REC-SVG-20010904/DTD/svg10.dtd">
<svg version="1.0" xmlns="http://www.w3.org/2000/svg"
 width="500.000000pt" height="500.000000pt" viewBox="0 0 500.000000 500.000000"
 preserveAspectRatio="xMidYMid meet">

<g transform="translate(0.000000,500.000000) scale(0.100000,-0.100000)"
fill="#000000" stroke="none">
<path d="M2210 4055 c0 -3 7 -17 16 -30 16 -25 44 -34 44 -15 0 5 -7 7 -15 3
-9 -3 -15 -2 -14 3 3 14 -12 44 -22 44 -5 0 -9 -2 -9 -5z"/>
<path d="M2492 4030 c0 -19 2 -27 5 -17 2 9 2 25 0 35 -3 9 -5 1 -5 -18z"/>
<path d="M2595 3985 c-4 -36 -5 -68 -3 -71 3 -2 8 25 12 62 4 37 5 69 2 71 -2
3 -7 -25 -11 -62z"/>
<path d="M2120 4021 c0 -5 7 -12 16 -15 14 -5 15 -4 4 9 -14 17 -20 19 -20 6z"/>
<path d="M2698 4003 c5 -21 7 -23 10 -9 2 10 0 22 -6 28 -6 6 -7 0 -4 -19z"/>
<path d="M2802 4000 c0 -8 8 -37 18 -65 10 -27 18 -43 18 -35 0 8 -8 38 -18
65 -10 28 -18 43 -18 35z"/>
<path d="M2487 3973 c-4 -3 -7 -18 -6 -32 1 -26 1 -25 10 3 9 31 7 41 -4 29z"/>
<path d="M2712 3950 c0 -14 2 -19 5 -12 2 6 2 18 0 25 -3 6 -5 1 -5 -13z"/>
<path d="M2932 3928 c-16 -44 -9 -45 11 -3 9 19 13 35 9 35 -4 0 -13 -14 -20
-32z"/>
<path d="M2626 3916 c-17 -30 -17 -30 1 -9 10 11 27 23 38 25 19 4 19 4 -1 10
-16 4 -25 -2 -38 -26z"/>
<path d="M2175 3920 c-3 -6 1 -7 9 -4 18 7 21 14 7 14 -6 0 -13 -4 -16 -10z"/>
<path d="M2722 3900 c0 -14 2 -19 5 -12 2 6 2 18 0 25 -3 6 -5 1 -5 -13z"/>
<path d="M2761 3903 c-1 -6 -4 -20 -7 -30 -5 -17 -5 -17 6 0 6 10 9 23 6 30
-3 9 -5 9 -5 0z"/>
<path d="M1700 3889 c0 -8 8 -19 18 -25 13 -9 21 -8 31 4 12 13 12 14 0 10 -8
-3 -22 1 -31 10 -15 13 -18 13 -18 1z"/>
<path d="M3093 3835 c0 -38 2 -53 4 -32 2 20 2 52 0 70 -2 17 -4 1 -4 -38z"/>
<path d="M2841 3875 c1 -19 18 -51 18 -35 0 8 -4 22 -9 30 -5 8 -9 11 -9 5z"/>
<path d="M2906 3865 c-9 -26 -7 -32 5 -12 6 10 9 21 6 23 -2 3 -7 -2 -11 -11z"/>
<path d="M2053 3853 c4 -3 3 -11 -2 -17 -6 -7 -2 -11 14 -11 14 0 26 7 29 18
3 13 -2 17 -22 17 -14 0 -22 -3 -19 -7z"/>
<path d="M3007 3827 l-17 -32 20 24 c17 20 26 41 18 41 -2 0 -11 -15 -21 -33z"/>
<path d="M3162 3778 c-18 -33 -31 -62 -29 -64 1 -2 18 24 36 57 18 33 31 62
30 64 -2 2 -19 -24 -37 -57z"/>
<path d="M1620 3815 c0 -9 6 -12 15 -9 8 4 12 10 9 15 -8 14 -24 10 -24 -6z"/>
<path d="M1848 3823 c6 -2 18 -2 25 0 6 3 1 5 -13 5 -14 0 -19 -2 -12 -5z"/>
<path d="M3025 3779 c-4 -6 -5 -12 -2 -15 2 -3 7 2 10 11 7 17 1 20 -8 4z"/>
<path d="M3272 3770 c0 -14 2 -19 5 -12 2 6 2 18 0 25 -3 6 -5 1 -5 -13z"/>
<path d="M2065 3770 c-3 -5 -4 -10 0 -10 3 0 -1 -13 -9 -28 -11 -22 -12 -29
-2 -29 14 0 37 65 25 72 -4 3 -10 1 -14 -5z"/>
<path d="M3197 3732 c-15 -17 -15 -18 6 -19 12 0 16 1 9 4 -10 4 -10 8 -1 19
17 20 5 17 -14 -4z"/>
<path d="M1631 3728 c0 -10 -4 -17 -8 -16 -15 3 -48 -17 -51 -30 -2 -9 4 -12
17 -7 20 6 38 -20 20 -30 -12 -8 -2 -25 15 -25 13 0 30 35 27 54 -1 4 4 14 10
22 9 12 9 13 -4 8 -11 -4 -17 2 -20 18 -3 14 -5 16 -6 6z"/>
<path d="M1973 3715 c-17 -18 -16 -22 1 -22 8 0 17 9 19 19 6 21 -3 23 -20 3z"/>
<path d="M3262 3710 c0 -14 2 -19 5 -12 2 6 2 18 0 25 -3 6 -5 1 -5 -13z"/>
<path d="M3314 3675 c-26 -31 -45 -57 -43 -59 2 -1 26 23 52 56 60 74 54 76
-9 3z"/>
<path d="M3252 3655 c0 -16 2 -22 5 -12 2 9 2 23 0 30 -3 6 -5 -1 -5 -18z"/>
<path d="M3420 3646 c0 -10 -13 -31 -29 -47 -33 -32 -27 -40 6 -9 23 21 39 58
29 67 -3 4 -6 -2 -6 -11z"/>
<path d="M3439 3592 c-48 -54 -62 -72 -57 -72 3 0 28 25 56 55 28 30 48 55 43
55 -4 0 -23 -17 -42 -38z"/>
<path d="M3530 3586 c0 -2 8 -10 18 -17 15 -13 16 -12 3 4 -13 16 -21 21 -21
13z"/>
<path d="M3557 3450 c-32 -28 -55 -50 -50 -50 8 0 122 99 113 99 -3 0 -31 -22
-63 -49z"/>
<path d="M3660 3412 c0 -6 -8 -13 -17 -15 -16 -4 -16 -5 -1 -6 18 -1 34 16 24
26 -3 4 -6 1 -6 -5z"/>
<path d="M1210 3400 c0 -5 12 -10 28 -10 21 0 24 2 12 10 -20 13 -40 13 -40 0z"/>
<path d="M2404 3369 c-12 -13 -21 -16 -28 -9 -25 25 -96 -11 -96 -48 0 -7 -8
-12 -18 -12 -34 0 -63 -30 -59 -59 4 -21 -2 -33 -24 -50 -28 -23 -39 -51 -19
-51 6 0 10 6 10 14 0 22 28 39 54 32 44 -11 44 -61 -1 -72 -13 -4 -30 -1 -36
5 -15 15 -28 14 -21 -2 2 -7 -5 -22 -16 -34 -13 -14 -20 -35 -19 -60 0 -21 -3
-57 -6 -80 -6 -36 -12 -44 -39 -53 -42 -13 -61 -48 -52 -93 5 -29 3 -38 -13
-49 -26 -18 -40 -57 -34 -92 4 -18 -1 -34 -14 -49 -28 -31 -34 -53 -23 -82 8
-20 5 -28 -17 -45 -22 -17 -26 -29 -26 -68 0 -35 -6 -54 -23 -75 -18 -21 -22
-35 -18 -55 4 -15 8 -29 10 -31 2 -2 -8 -17 -21 -33 -61 -73 4 -165 87 -123
28 13 34 14 54 0 21 -13 28 -13 66 -1 31 11 46 12 55 4 17 -13 81 -13 97 1 8
7 26 5 55 -5 39 -13 46 -13 66 0 20 13 27 14 49 2 30 -15 86 -12 98 6 5 10 14
8 38 -6 30 -17 33 -17 78 0 33 12 47 14 50 6 5 -15 84 -16 99 -1 8 8 18 6 35
-5 28 -18 86 -15 98 5 7 10 12 10 23 0 24 -20 93 -23 126 -7 46 24 56 81 21
116 -17 17 -20 29 -16 65 6 45 -3 62 -41 84 -14 7 -15 13 -4 39 14 33 7 54
-28 86 -15 13 -19 26 -14 47 8 40 -4 77 -27 84 -17 5 -19 12 -14 48 5 34 2 47
-17 71 -16 20 -23 43 -23 77 -1 51 -18 78 -52 83 -14 2 -20 12 -22 36 -2 19
-12 42 -23 51 -15 13 -17 22 -10 40 9 25 0 62 -18 73 -7 4 -7 15 -1 30 12 33
3 62 -25 74 -15 7 -22 19 -22 37 0 30 -29 65 -53 65 -9 0 -22 11 -28 25 -16
34 -57 53 -82 38 -14 -10 -21 -8 -34 6 -22 24 -70 24 -92 0z m86 -26 c0 -35
-10 -50 -35 -54 -30 -5 -45 9 -45 41 0 31 10 38 53 39 23 1 27 -3 27 -26z
m101 -12 c14 -14 14 -19 2 -30 -8 -7 -12 -19 -9 -26 4 -10 -2 -11 -27 -4 -18
5 -33 9 -33 9 -8 0 -7 59 0 66 14 14 46 6 67 -15z m-213 -11 c3 -37 -10 -52
-40 -45 -17 4 -28 15 -31 30 -5 30 11 47 43 43 18 -2 26 -10 28 -28z m177 -70
c8 0 15 -5 15 -11 0 -5 5 -7 12 -3 8 5 9 2 5 -9 -4 -12 2 -22 19 -33 14 -10
23 -23 20 -30 -3 -8 -1 -14 4 -14 5 0 7 -6 4 -14 -3 -7 2 -21 12 -30 12 -13
14 -20 5 -29 -18 -18 -13 -48 15 -73 14 -13 21 -24 16 -24 -6 0 -9 -17 -9 -37
2 -36 0 -39 -43 -53 -37 -13 -49 -13 -70 -3 -34 17 -61 16 -88 -3 -16 -11 -27
-13 -35 -5 -23 19 -69 21 -97 4 -25 -15 -29 -15 -51 1 -13 9 -31 16 -40 16
-23 0 -32 88 -11 112 10 12 12 28 8 51 -5 25 -2 38 9 47 8 7 15 28 15 46 0 19
4 34 9 34 6 0 18 14 28 30 9 17 24 30 33 30 8 0 24 7 34 15 13 10 32 12 62 8
34 -4 45 -2 49 10 5 12 10 11 30 -9 13 -13 31 -24 40 -24z m-271 24 c9 -8 16
-22 16 -29 0 -18 -28 -45 -46 -45 -11 0 -34 36 -34 55 0 7 32 35 40 35 5 0 16
-7 24 -16z m394 -27 c5 -24 -27 -55 -50 -49 -37 9 -44 77 -9 85 21 5 55 -16
59 -36z m46 -79 c16 -26 -4 -53 -40 -53 -25 0 -30 4 -32 29 -6 46 47 63 72 24z
m-513 -88 c22 -12 25 -41 7 -69 -9 -16 -16 -17 -35 -8 -13 5 -23 14 -23 18 0
4 -3 14 -6 22 -3 8 2 22 11 31 19 19 21 19 46 6z m532 -17 c8 -18 7 -27 -6
-41 -23 -25 -42 -23 -69 6 -13 14 -17 22 -9 17 9 -5 12 -3 9 6 -5 15 23 36 49
36 8 0 20 -11 26 -24z m3 -81 c20 -13 45 -70 25 -58 -5 3 -11 -1 -15 -9 -7
-18 -37 -20 -54 -3 -18 18 -15 55 6 67 21 12 24 13 38 3z m-541 -42 c0 -32 -2
-35 -30 -35 -24 0 -31 5 -33 23 -6 38 5 54 35 50 25 -3 28 -7 28 -38z m191
-59 c-3 -5 3 -11 14 -14 25 -6 34 -29 26 -62 -12 -49 -83 -58 -107 -14 -16 31
-3 64 33 82 39 19 41 20 34 8z m-242 -23 c25 -36 20 -66 -16 -88 -45 -27 -88
-4 -88 49 0 56 73 83 104 39z m131 -1 c22 -18 25 -28 19 -50 -13 -54 -97 -63
-110 -12 -9 35 3 73 24 78 33 9 41 7 67 -16z m276 2 c11 -11 18 -27 15 -36 -3
-8 -6 -18 -6 -23 0 -17 -32 -40 -55 -40 -21 0 -65 41 -65 60 0 4 9 19 21 34
25 32 61 34 90 5z m133 2 c11 -12 16 -32 14 -57 -3 -34 -7 -39 -28 -41 -48 -5
-68 6 -80 42 -11 32 -10 37 12 55 29 25 60 25 82 1z m137 9 c12 -7 19 -21 19
-41 0 -48 -16 -69 -54 -69 -41 0 -61 22 -58 63 4 50 47 71 93 47z m-723 -144
c5 -6 11 -20 14 -32 12 -49 -46 -87 -89 -59 -33 22 -30 84 5 101 26 13 56 8
70 -10z m397 -1 c29 -28 31 -42 9 -73 -19 -27 -71 -30 -90 -4 -30 39 -3 96 49
101 4 1 19 -10 32 -24z m129 14 c-2 -4 3 -9 11 -13 21 -8 20 -82 -1 -90 -30
-11 -71 -6 -86 12 -17 19 -31 65 -17 56 5 -3 9 2 9 10 0 9 5 16 11 16 5 0 8 3
5 8 -2 4 13 7 34 7 21 0 36 -3 34 -6z m-386 -11 c17 -17 15 -64 -4 -82 -19
-20 -63 -20 -88 -1 -14 11 -17 21 -11 42 3 15 11 34 17 40 13 16 70 17 86 1z
m128 4 c15 -9 26 -64 16 -78 -18 -27 -51 -35 -82 -19 -24 13 -30 22 -30 50 0
22 6 38 18 44 20 12 62 14 78 3z m409 -16 c23 -34 11 -72 -27 -85 -36 -13 -65
0 -77 32 -9 22 2 56 23 69 24 16 66 8 81 -16z m101 -1 c25 -38 12 -75 -26 -75
-39 0 -59 37 -42 75 15 32 47 32 68 0z m-153 -123 c21 -18 22 -65 2 -82 -22
-18 -66 -15 -82 6 -20 27 -16 71 8 88 23 16 43 12 72 -12z m-672 8 c29 -16 26
-75 -5 -95 -31 -21 -70 -11 -85 21 -15 34 -14 41 9 64 22 22 51 26 81 10z
m130 0 c20 -11 26 -63 10 -89 -11 -18 -65 -19 -85 -1 -22 17 -21 76 2 89 22
13 48 14 73 1z m145 -15 c22 -33 7 -76 -29 -88 -32 -10 -54 3 -68 41 -23 60
62 101 97 47z m125 14 c16 -8 19 -19 18 -54 -2 -24 -5 -43 -8 -43 -3 1 -15 -3
-25 -7 -30 -13 -70 15 -74 52 -5 52 40 79 89 52z m137 -2 c6 -6 13 -24 17 -38
5 -21 1 -31 -21 -48 -33 -26 -49 -26 -73 -2 -11 11 -22 17 -24 14 -3 -2 -1 12
3 33 5 20 15 41 22 45 20 13 64 11 76 -4z m270 1 c30 -30 2 -108 -40 -108 -46
0 -75 71 -42 104 18 19 65 21 82 4z m62 -23 c11 -20 11 -27 0 -40 -21 -25 -30
-17 -30 25 0 46 11 51 30 15z m-927 -96 c27 -15 37 -28 37 -54 -1 -34 -27 -58
-62 -57 -58 2 -76 55 -33 97 28 29 29 29 58 14z m148 -10 c49 -49 -9 -133 -67
-95 -38 26 -29 93 16 109 25 9 29 8 51 -14z m411 -15 c26 -56 -27 -113 -76
-81 -31 20 -41 50 -26 77 23 43 83 45 102 4z m266 8 c32 -40 -5 -107 -55 -98
-31 6 -43 21 -43 57 0 59 62 85 98 41z m-540 6 c20 -20 14 -72 -11 -94 -22
-19 -24 -19 -52 -4 -36 20 -45 62 -19 91 19 21 64 25 82 7z m136 -4 c9 -8 16
-26 16 -40 0 -26 -32 -64 -54 -64 -23 0 -66 40 -66 62 0 50 69 77 104 42z
m262 8 c32 -21 20 -95 -17 -107 -10 -4 -31 0 -46 7 -50 24 -30 108 26 108 14
0 31 -4 37 -8z m283 -23 c13 -24 13 -29 -2 -53 -13 -20 -26 -26 -52 -26 -18 0
-37 5 -40 10 -13 21 -24 70 -14 65 5 -4 9 0 9 9 0 36 78 32 99 -5z m-974 -139
c7 -31 -8 -69 -28 -71 -7 -1 -26 -2 -43 -4 -17 -1 -31 2 -31 9 0 6 -4 23 -8
38 -5 21 -2 32 18 52 22 22 29 24 56 15 21 -7 32 -19 36 -39z m261 15 c18 -27
6 -68 -25 -84 -26 -15 -67 1 -76 29 -23 72 60 117 101 55z m127 7 c28 -25 15
-92 -18 -92 -8 0 -15 -4 -15 -9 0 -5 -13 -3 -29 5 -34 17 -46 52 -30 88 17 37
53 41 92 8z m395 0 c21 -27 15 -70 -12 -88 -22 -13 -29 -14 -53 -2 -32 15 -41
49 -22 84 19 36 60 38 87 6z m141 -9 c28 -61 -31 -118 -83 -80 -22 16 -29 66
-13 88 26 34 79 30 96 -8z m-805 11 c25 -24 20 -71 -9 -90 -21 -14 -30 -14
-55 -4 -17 7 -31 18 -31 24 -1 6 -2 18 -3 26 0 8 5 25 13 38 16 26 62 30 85 6z
m398 -1 c37 -33 10 -103 -41 -103 -41 0 -69 78 -39 108 17 17 58 15 80 -5z
m142 -14 c17 -40 11 -64 -20 -78 -50 -23 -87 13 -81 80 2 23 7 26 45 28 39 2
44 -1 56 -30z m348 14 c31 -36 30 -69 -2 -73 -42 -6 -50 0 -50 38 0 55 22 69
52 35z m-386 -151 c15 -23 15 -26 -3 -51 -25 -32 -72 -40 -90 -15 -20 27 -16
71 8 93 17 16 26 18 45 9 13 -6 31 -22 40 -36z m-675 16 c37 -41 12 -98 -42
-98 -38 0 -66 48 -48 83 23 43 61 50 90 15z m127 6 c15 -10 22 -25 22 -48 0
-40 -15 -56 -55 -56 -17 0 -36 5 -43 12 -17 17 -15 68 5 90 20 22 42 23 71 2z
m136 0 c21 -20 20 -68 0 -89 -10 -10 -29 -15 -48 -13 -74 7 -64 117 11 118 12
0 29 -7 37 -16z m128 -1 c20 -18 24 -73 6 -91 -13 -13 -57 -16 -74 -4 -18 12
-35 52 -28 65 28 48 63 60 96 30z m138 -3 c6 -12 10 -35 8 -53 -2 -24 -9 -34
-31 -41 -39 -14 -61 2 -67 50 -6 45 9 63 52 64 17 0 31 -7 38 -20z m262 3 c25
-22 24 -79 -1 -93 -65 -34 -118 28 -75 88 18 26 50 28 76 5z m141 -15 c16 -34
13 -56 -11 -75 -55 -45 -123 36 -75 89 27 30 68 23 86 -14z m125 16 c24 -16
29 -53 12 -85 -15 -28 -74 -26 -94 3 -9 12 -16 29 -16 38 0 26 30 60 53 60 13
0 33 -7 45 -16z m57 -24 c3 -11 2 -27 -3 -36 -8 -14 -10 -9 -14 20 -4 38 6 49
17 16z"/>
<path d="M3605 3351 c-6 -5 -19 -11 -30 -14 -19 -4 -19 -5 1 -6 12 0 27 6 34
14 14 16 10 20 -5 6z"/>
<path d="M1170 3304 c0 -14 3 -14 15 -4 8 7 15 14 15 16 0 2 -7 4 -15 4 -8 0
-15 -7 -15 -16z"/>
<path d="M3645 3274 l-30 -26 33 22 c17 12 32 23 32 26 0 7 -4 5 -35 -22z"/>
<path d="M3758 3186 c-84 -47 -85 -56 -3 -11 78 42 82 45 69 45 -5 0 -35 -15
-66 -34z"/>
<path d="M1261 3168 c-17 -27 -16 -31 4 -34 10 -2 15 6 15 27 0 35 -1 35 -19
7z"/>
<path d="M3755 3099 c-9 -17 -15 -34 -13 -39 2 -5 11 9 20 30 20 47 15 53 -7
9z"/>
<path d="M3850 3123 c0 -5 -10 -15 -22 -21 -13 -6 -18 -11 -12 -11 16 -1 50
27 41 35 -4 4 -7 3 -7 -3z"/>
<path d="M1310 3103 c2 -21 38 -75 44 -65 4 7 -3 25 -15 42 -23 31 -29 36 -29
23z"/>
<path d="M3780 3033 c8 -3 21 -11 29 -17 11 -8 13 -8 8 1 -4 6 -1 14 5 16 7 3
-3 5 -22 5 -19 0 -28 -2 -20 -5z"/>
<path d="M3864 2998 c-46 -49 -69 -78 -61 -78 3 0 28 27 57 60 60 69 62 79 4
18z"/>
<path d="M1290 2992 c0 -13 4 -20 10 -17 6 3 10 1 10 -6 0 -7 3 -10 6 -6 3 3
-1 16 -10 29 l-16 22 0 -22z"/>
<path d="M1126 2983 c-6 -14 -5 -15 5 -6 7 7 10 15 7 18 -3 3 -9 -2 -12 -12z"/>
<path d="M1033 2935 c0 -8 4 -12 9 -9 5 3 6 10 3 15 -9 13 -12 11 -12 -6z"/>
<path d="M3901 2898 c-24 -26 -40 -48 -35 -47 11 1 89 88 83 92 -2 2 -24 -19
-48 -45z"/>
<path d="M976 2922 c-12 -11 -6 -20 12 -17 9 2 21 4 26 4 13 1 -2 14 -19 17
-7 1 -16 -1 -19 -4z"/>
<path d="M3940 2820 c-51 -22 -46 -26 11 -8 22 6 39 15 39 20 0 4 -1 8 -2 7
-2 -1 -23 -9 -48 -19z"/>
<path d="M971 2821 c-8 -5 -9 -11 -3 -15 5 -3 12 1 16 9 6 17 6 18 -13 6z"/>
<path d="M3858 2753 c6 -2 18 -2 25 0 6 3 1 5 -13 5 -14 0 -19 -2 -12 -5z"/>
<path d="M1029 2729 c-5 -11 -5 -27 0 -41 7 -17 10 -19 10 -5 1 21 10 22 39 1
28 -19 38 -13 23 14 -8 15 -8 22 2 25 6 3 2 6 -11 6 -13 1 -21 5 -17 10 3 6
-4 9 -16 8 -11 -1 -25 -9 -30 -18z"/>
<path d="M3942 2695 c-34 -25 -62 -48 -62 -51 0 -5 54 33 110 76 48 38 13 19
-48 -25z"/>
<path d="M3991 2374 c0 -11 3 -14 6 -6 3 7 2 16 -1 19 -3 4 -6 -2 -5 -13z"/>
<path d="M3901 2347 c-1 -36 44 -84 63 -68 20 17 25 59 9 73 -8 6 -13 7 -12 2
4 -25 -1 -36 -13 -26 -7 6 -17 10 -23 10 -5 0 -12 9 -16 19 -6 14 -8 12 -8
-10z"/>
<path d="M992 2252 c-13 -13 -22 -28 -20 -33 2 -6 14 4 27 21 28 38 24 45 -7
12z"/>
<path d="M1091 2215 c1 -19 18 -51 18 -35 0 8 -4 22 -9 30 -5 8 -9 11 -9 5z"/>
<path d="M4020 2205 c0 -13 4 -14 20 -5 11 6 20 13 20 15 0 3 -9 5 -20 5 -11
0 -20 -7 -20 -15z"/>
<path d="M1001 2143 c-6 -13 -5 -22 5 -31 12 -11 14 -8 14 18 0 34 -5 38 -19
13z"/>
<path d="M3997 2113 c-27 -7 -11 -21 18 -16 13 3 22 9 19 14 -5 9 -8 10 -37 2z"/>
<path d="M1170 2080 c0 -12 4 -19 9 -16 5 4 12 0 15 -6 3 -7 4 -2 3 11 -3 31
-27 41 -27 11z"/>
<path d="M3952 2091 c-11 -6 -9 -9 6 -13 15 -4 19 -2 15 8 -6 16 -4 16 -21 5z"/>
<path d="M1232 2085 c3 -3 15 -7 26 -10 11 -2 30 -9 41 -15 17 -8 21 -8 21 3
0 8 -14 17 -31 21 -38 7 -64 8 -57 1z"/>
<path d="M3703 2053 c-9 -3 -9 -10 3 -28 9 -13 12 -30 8 -37 -5 -10 -4 -10 5
-2 9 8 10 18 3 30 -5 11 -7 25 -5 32 5 13 5 13 -14 5z"/>
<path d="M1276 2000 c16 -14 54 -22 54 -11 0 6 -6 11 -12 12 -7 0 -21 2 -32 4
-10 2 -15 0 -10 -5z"/>
<path d="M3650 1980 c-12 -8 -12 -10 3 -16 9 -3 17 -14 17 -24 0 -20 17 -36
28 -25 3 3 1 10 -7 14 -7 5 -12 11 -12 15 0 3 -3 15 -7 25 -5 15 -11 18 -22
11z"/>
<path d="M3732 1888 c-6 -8 -7 -19 -3 -26 6 -10 11 -9 21 3 9 11 10 19 3 26
-7 7 -14 5 -21 -3z"/>
<path d="M1200 1861 c0 -6 4 -13 10 -16 6 -3 7 1 4 9 -7 18 -14 21 -14 7z"/>
<path d="M1800 1662 c0 -91 3 -122 13 -122 9 0 11 27 9 112 -4 157 -22 165
-22 10z"/>
<path d="M2090 1771 c0 -5 -3 -18 -6 -28 -4 -13 -3 -14 3 -5 7 9 17 -4 37 -49
16 -33 29 -67 30 -74 1 -7 7 -19 12 -26 6 -8 14 -22 17 -31 4 -10 11 -18 17
-18 10 0 -8 51 -59 162 -28 62 -51 93 -51 69z"/>
<path d="M2270 1660 c0 -73 4 -120 10 -120 6 0 10 47 10 120 0 73 -4 120 -10
120 -6 0 -10 -47 -10 -120z"/>
<path d="M2767 1773 c-3 -5 -6 -59 -6 -120 -1 -78 2 -113 9 -113 8 0 10 28 5
100 -4 55 -5 100 -2 100 3 0 23 -32 43 -70 27 -51 40 -68 48 -60 8 8 8 13 0
18 -6 4 -28 40 -48 80 -36 72 -41 78 -49 65z"/>
<path d="M2930 1759 c-8 -15 -9 -19 -1 -15 8 5 11 -24 11 -98 0 -64 4 -106 10
-106 13 0 13 227 1 235 -6 3 -15 -4 -21 -16z"/>
<path d="M2410 1750 c41 -41 13 -100 -48 -100 l-31 0 22 -23 c12 -13 34 -37
50 -55 15 -18 32 -32 38 -32 6 0 -8 22 -30 49 l-41 49 24 6 c54 13 75 76 38
109 -26 24 -46 21 -22 -3z"/>
<path d="M2576 1755 c-8 -23 -7 -33 2 -17 6 8 17 -7 36 -45 15 -32 28 -65 30
-73 6 -33 56 -101 56 -76 0 14 -99 221 -107 223 -6 2 -13 -3 -17 -12z"/>
<path d="M3090 1755 c0 -8 4 -15 9 -15 7 0 61 -108 61 -124 0 -4 -9 -2 -19 4
-11 5 -33 10 -50 10 -29 0 -29 1 -20 32 18 65 7 51 -21 -26 -32 -86 -34 -96
-21 -96 4 0 12 15 17 32 18 62 108 60 136 -3 7 -16 18 -29 25 -29 8 0 -1 29
-23 78 -20 42 -43 94 -51 115 -15 37 -43 51 -43 22z"/>
<path d="M1142 1729 c-17 -27 3 -32 21 -6 12 18 12 24 3 24 -8 0 -18 -8 -24
-18z"/>
<path d="M3810 1715 c-14 -16 -3 -20 19 -6 8 5 9 11 3 15 -5 3 -15 -1 -22 -9z"/>
<path d="M2042 1629 c-19 -55 -26 -89 -19 -86 7 2 13 13 15 26 5 30 45 55 79
47 21 -5 24 -4 13 4 -8 5 -27 10 -42 10 -31 0 -33 4 -17 49 6 18 9 34 7 36 -2
3 -18 -36 -36 -86z"/>
<path d="M2533 1630 c-33 -91 -30 -122 4 -52 16 34 22 37 56 36 24 -1 34 2 25
7 -7 5 -25 9 -40 9 -31 0 -33 4 -17 49 6 18 10 34 7 36 -2 2 -18 -36 -35 -85z"/>
<path d="M1321 1663 c-1 -7 -9 -13 -18 -13 -14 0 -15 -2 -4 -9 7 -5 11 -13 7
-19 -3 -6 8 -21 26 -33 18 -12 27 -16 21 -9 -18 20 -16 25 12 38 21 10 23 9
19 -6 -5 -14 -4 -14 6 1 10 15 8 21 -7 33 -10 8 -26 12 -35 10 -9 -2 -19 1
-22 8 -3 7 -5 7 -5 -1z"/>
<path d="M1200 1646 c0 -8 5 -18 10 -21 6 -3 10 1 10 9 0 8 -4 18 -10 21 -5 3
-10 -1 -10 -9z"/>
<path d="M3750 1630 c0 -5 4 -10 9 -10 5 0 18 -3 28 -7 16 -6 16 -5 4 10 -15
19 -41 23 -41 7z"/>
<path d="M3818 1613 c7 -3 16 -2 19 1 4 3 -2 6 -13 5 -11 0 -14 -3 -6 -6z"/>
<path d="M1895 1550 l-50 -7 58 -1 c32 -1 57 2 57 8 0 6 -3 9 -7 8 -5 0 -30
-4 -58 -8z"/>
<path d="M3370 1397 c0 -8 -7 -17 -15 -20 -12 -5 -12 -12 -3 -37 9 -28 14 -31
37 -25 14 4 26 7 26 8 1 1 6 9 13 19 10 12 10 18 1 24 -8 4 -9 3 -5 -5 4 -6 0
-14 -9 -18 -20 -7 -38 16 -24 33 6 7 4 16 -6 24 -12 10 -15 10 -15 -3z"/>
<path d="M1616 1367 c3 -10 9 -15 12 -12 3 3 0 11 -7 18 -10 9 -11 8 -5 -6z"/>
<path d="M1952 1350 c-12 -10 -28 -20 -35 -23 -6 -2 -9 -7 -6 -11 9 -10 69 27
69 42 0 15 0 15 -28 -8z"/>
<path d="M3333 1325 c0 -8 4 -12 9 -9 5 3 6 10 3 15 -9 13 -12 11 -12 -6z"/>
<path d="M3010 1308 c0 -12 1 -19 3 -17 1 2 9 12 16 22 12 14 11 17 -3 17 -10
0 -16 -8 -16 -22z"/>
<path d="M2023 1306 c-30 -14 -29 -24 0 -19 13 3 24 11 24 19 0 8 -1 13 -1 13
-1 -1 -11 -6 -23 -13z"/>
<path d="M2925 1284 c-9 -50 -1 -52 18 -4 12 32 13 40 2 40 -7 0 -16 -16 -20
-36z"/>
<path d="M1619 1299 c-6 -47 -3 -89 5 -86 11 4 11 75 1 85 -3 3 -5 3 -6 1z"/>
<path d="M1840 1270 c26 -18 55 -33 48 -25 -4 5 -3 14 3 22 9 10 4 13 -27 13
-30 0 -35 -3 -24 -10z"/>
<path d="M3354 1208 c-4 -7 -4 -10 1 -6 4 4 14 3 22 -4 11 -8 12 -7 7 6 -7 19
-20 21 -30 4z"/>
<path d="M1704 1204 c-17 -7 -5 -44 12 -37 10 4 11 9 4 18 -5 6 -7 15 -3 18 7
8 4 8 -13 1z"/>
<path d="M2910 1185 c0 -8 9 -15 19 -15 10 0 21 7 25 15 4 11 -1 15 -19 15
-16 0 -25 -6 -25 -15z"/>
<path d="M3190 1196 c0 -2 7 -7 16 -10 8 -3 12 -2 9 4 -6 10 -25 14 -25 6z"/>
<path d="M3230 1169 c0 -5 5 -7 10 -4 6 3 10 8 10 11 0 2 -4 4 -10 4 -5 0 -10
-5 -10 -11z"/>
<path d="M3270 1160 c0 -6 7 -13 15 -17 24 -9 27 1 5 15 -13 8 -20 8 -20 2z"/>
<path d="M2042 1115 c12 -14 23 -25 25 -25 2 0 -4 11 -13 25 -9 14 -20 25 -25
25 -5 0 1 -11 13 -25z"/>
<path d="M2301 1103 c-1 -6 -10 -14 -20 -18 -26 -8 -16 -44 16 -56 33 -12 33
-13 28 21 -2 20 2 33 12 39 12 6 13 10 3 16 -7 4 -16 2 -20 -5 -6 -10 -9 -9
-13 1 -3 9 -6 10 -6 2z"/>
<path d="M2805 1100 c-3 -6 1 -7 9 -4 18 7 21 14 7 14 -6 0 -13 -4 -16 -10z"/>
<path d="M2670 1076 c0 -2 7 -7 16 -10 8 -3 12 -2 9 4 -6 10 -25 14 -25 6z"/>
<path d="M2091 991 c-1 -27 2 -32 11 -23 8 8 8 17 0 34 -10 22 -11 21 -11 -11z"/>
<path d="M2860 1011 c0 -16 28 -20 34 -5 4 9 -1 14 -14 14 -11 0 -20 -4 -20
-9z"/>
<path d="M2760 1003 c0 -5 7 -18 15 -29 12 -16 14 -16 15 -3 0 9 -7 22 -15 29
-8 7 -15 8 -15 3z"/>
<path d="M2186 992 c-2 -4 2 -16 10 -27 8 -10 14 -13 14 -6 0 7 5 9 12 5 7 -4
8 -3 4 4 -4 7 -14 12 -22 12 -8 0 -12 5 -9 10 3 6 4 10 1 10 -3 0 -7 -3 -10
-8z"/>
</g>
</svg>
